<svg width="20" height="20" viewBox="0 0 20 20" fill="none" xmlns="http://www.w3.org/2000/svg">
<rect width="20" height="20" rx="10" fill="#FEE400"/>
<mask id="mask0_562_79" style="mask-type:alpha" maskUnits="userSpaceOnUse" x="0" y="0" width="20" height="20">
<rect width="20" height="20" fill="#D9D9D9"/>
</mask>
<g mask="url(#mask0_562_79)">
<path d="M12.7916 13.2452L9.45826 9.91186V5.20832H10.5416V9.46312L13.5576 12.4792L12.7916 13.2452ZM3.18576 13.3094C2.96465 12.8798 2.79104 12.4302 2.66493 11.9606C2.53896 11.4912 2.45778 11.0182 2.42139 10.5417H3.51764C3.54 10.9358 3.60222 11.3143 3.7043 11.6771C3.80625 12.0399 3.94111 12.3964 4.10889 12.7469L3.18576 13.3094ZM2.44222 9.45832C2.47861 8.9818 2.55771 8.51013 2.67951 8.04332C2.80132 7.57638 2.97007 7.12548 3.18576 6.69062L4.12972 7.23228C3.95666 7.5827 3.81701 7.94409 3.71076 8.31645C3.60437 8.68881 3.54 9.06943 3.51764 9.45832H2.44222ZM5.75951 16.2644C5.36646 15.9952 4.9968 15.6937 4.65055 15.3598C4.30444 15.0259 3.99673 14.6624 3.72743 14.2692L4.67139 13.6987C4.87861 14.0267 5.12007 14.325 5.39576 14.5937C5.67146 14.8625 5.97326 15.1074 6.30118 15.3285L5.75951 16.2644ZM4.67139 6.30124L3.72743 5.75957C3.99673 5.35263 4.30097 4.98082 4.64014 4.64416C4.97944 4.30763 5.35257 4.00478 5.75951 3.73561L6.30118 4.67145C5.98173 4.89256 5.68555 5.13617 5.41264 5.40228C5.13958 5.66825 4.8925 5.96791 4.67139 6.30124ZM9.45826 17.5785C8.98173 17.5421 8.51007 17.4596 8.04326 17.3308C7.57632 17.2021 7.12541 17.0299 6.69055 16.8142L7.23222 15.891C7.58264 16.0641 7.94403 16.2003 8.31639 16.2996C8.68875 16.399 9.06937 16.4599 9.45826 16.4823V17.5785ZM7.25305 4.12978L6.69055 3.18582C7.12541 2.97013 7.57632 2.79791 8.04326 2.66916C8.51007 2.54041 8.98173 2.45784 9.45826 2.42145V3.5177C9.06937 3.54006 8.69222 3.60443 8.3268 3.71082C7.96139 3.81707 7.60347 3.95673 7.25305 4.12978ZM10.5416 17.5785V16.4823C10.9305 16.4599 11.3111 16.399 11.6835 16.2996C12.0558 16.2003 12.4172 16.0641 12.7676 15.891L13.3093 16.8142C12.8744 17.0299 12.4235 17.2021 11.9566 17.3308C11.4898 17.4596 11.0181 17.5421 10.5416 17.5785ZM12.7676 4.10895C12.4172 3.93589 12.0558 3.79971 11.6835 3.70041C11.3111 3.60096 10.9305 3.54006 10.5416 3.5177V2.42145C11.0181 2.45784 11.4898 2.54041 11.9566 2.66916C12.4235 2.79791 12.8744 2.97013 13.3093 3.18582L12.7676 4.10895ZM14.2403 16.2644L13.6987 15.3494C14.032 15.1283 14.3317 14.8777 14.5976 14.5977C14.8637 14.3178 15.1074 14.0182 15.3285 13.6987L16.2643 14.2612C15.9951 14.6543 15.6888 15.0178 15.3453 15.3517C15.0017 15.6855 14.6334 15.9898 14.2403 16.2644ZM15.3285 6.29332C15.1074 5.97388 14.8603 5.67902 14.5872 5.40874C14.3143 5.13832 14.0181 4.89256 13.6987 4.67145L14.2403 3.73561C14.6334 4.0102 15.0017 4.31443 15.3453 4.64832C15.6888 4.98221 15.9978 5.34568 16.2724 5.73874L15.3285 6.29332ZM16.4822 9.45832C16.4599 9.06943 16.3976 8.69228 16.2956 8.32687C16.1936 7.96145 16.056 7.60089 15.8828 7.2452L16.8141 6.69062C17.0352 7.1202 17.2088 7.56839 17.3349 8.0352C17.4609 8.50214 17.5421 8.97652 17.5785 9.45832H16.4822ZM16.8141 13.3094L15.891 12.7677C16.064 12.4173 16.2002 12.0559 16.2995 11.6835C16.399 11.3112 16.4599 10.9305 16.4822 10.5417H17.5785C17.5421 11.0182 17.4595 11.4899 17.3308 11.9567C17.202 12.4236 17.0298 12.8745 16.8141 13.3094Z" fill="#282E37"/>
</g>
</svg>
