<svg width="20" height="20" viewBox="0 0 20 20" fill="none" xmlns="http://www.w3.org/2000/svg">
<path d="M12.9357 13.3975L13.7097 12.6235L10.5415 9.455V5.00006H9.45817V9.91994L12.9357 13.3975ZM10.0012 17.5834C8.95661 17.5834 7.97473 17.386 7.05555 16.9913C6.13637 16.5966 5.33085 16.0534 4.639 15.3619C3.94714 14.6704 3.40376 13.8642 3.00886 12.9434C2.61396 12.0227 2.4165 11.0388 2.4165 9.99192C2.4165 8.945 2.61387 7.96065 3.00859 7.03887C3.40331 6.11708 3.94643 5.31374 4.63796 4.62883C5.3295 3.94392 6.13566 3.40401 7.05644 3.0091C7.97722 2.6142 8.96106 2.41675 10.008 2.41675C11.0549 2.41675 12.0393 2.61578 12.9611 3.01383C13.883 3.41189 14.6849 3.9521 15.3668 4.63446C16.0488 5.31683 16.5886 6.11926 16.9864 7.04173C17.3842 7.96419 17.5831 8.94983 17.5831 9.99867C17.5831 11.0433 17.3858 12.0252 16.991 12.9443C16.5963 13.8635 16.0567 14.669 15.3721 15.3609C14.6875 16.0527 13.8836 16.5961 12.9604 16.991C12.0373 17.3859 11.0509 17.5834 10.0012 17.5834ZM10.0098 16.5001C11.808 16.5001 13.3393 15.8646 14.6035 14.5938C15.8677 13.323 16.4998 11.7884 16.4998 9.99012C16.4998 8.19183 15.8677 6.66058 14.6035 5.39637C13.3393 4.13217 11.808 3.50006 10.0098 3.50006C8.21146 3.50006 6.6769 4.13217 5.40607 5.39637C4.13523 6.66058 3.49982 8.19183 3.49982 9.99012C3.49982 11.7884 4.13523 13.323 5.40607 14.5938C6.6769 15.8646 8.21146 16.5001 10.0098 16.5001Z" fill="#6A5F00"/>
</svg>
